<svg width="38" height="38" viewBox="0 0 38 38" fill="none" xmlns="http://www.w3.org/2000/svg">
<path d="M30.2375 17.7308H8.65413C6.95126 17.7308 5.5708 19.1113 5.5708 20.8141V31.6058C5.5708 33.3087 6.95126 34.6891 8.65413 34.6891H30.2375C31.9403 34.6891 33.3208 33.3087 33.3208 31.6058V20.8141C33.3208 19.1113 31.9403 17.7308 30.2375 17.7308Z" stroke="#0075FF" stroke-width="4" stroke-linecap="round" stroke-linejoin="round"/>
<path d="M12 18V11.7813C11.9981 9.85352 12.6944 7.99384 13.9536 6.56321C15.2128 5.13259 16.9452 4.23311 18.8144 4.03937C20.6836 3.84564 22.5563 4.37148 24.0689 5.51481C25.5815 6.65814 26.6261 8.33739 27 10.2266V18" stroke="#0075FF" stroke-width="4" stroke-linecap="round" stroke-linejoin="round"/>
</svg>
